<svg xmlns="http://www.w3.org/2000/svg" viewBox="0 0 804.34 677.91"><defs><style>.cls-1{isolation:isolate;}.cls-2{fill:none;}</style></defs><title>Ресурс 1</title><g id="Слой_2" data-name="Слой 2"><g id="Header"><g id="Image"><g id="Mask_Layer_18" data-name="Mask + Layer 18" class="cls-1"><g id="Mask_Layer_18_Обтравочный_контур" data-name="Mask + Layer 18 Обтравочный контур"><path class="cls-2" d="M561,158.15c-49-16.6-97.48-29.31-142.88-54.63C349.13,65.07,282,17.82,203.31,3.94A262.44,262.44,0,0,0,170.43.23c-61-3-127.09,23-155.08,77.08C-9.32,125,0,182.66,13.84,234.49,29.4,292.7,43,345,34.66,405.51,28.8,448.17,19.31,490.37,16,533.37,9.26,621.8,38.69,689.94,139.6,676.12c44-6,85.09-27,124.11-47,26.22-13.46,57.39-34.4,87.91-33.69,28.93.68,50.95,21.21,73.1,33.59,36.9,20.65,78,33.55,124.88,30,135.57-10.39,246.69-135.61,254.27-248.8C813,274.35,685.59,200.36,561,158.15Z" transform="translate(0 0)"/></g></g></g></g></g></svg>